<svg version="1.1" id="Layer_1" xmlns="http://www.w3.org/2000/svg" xmlns:xlink="http://www.w3.org/1999/xlink" x="0px" y="0px"
	 width="100%" viewBox="0 0 169 228" enable-background="new 0 0 169 228" xml:space="preserve">
<path fill="#000000" opacity="1.000000" stroke="none" 
	d="
M170.000000,63.000000 
	C170.000000,118.666664 170.000000,173.833328 170.000000,229.000000 
	C113.666664,229.000000 57.333332,229.000000 1.000000,229.000000 
	C1.000000,153.000000 1.000000,77.000000 1.000000,1.000000 
	C57.333332,1.000000 113.666664,1.000000 170.000000,1.000000 
	C170.000000,21.500000 170.000000,42.000000 170.000000,63.000000 
M139.855682,94.505127 
	C139.575546,94.326866 139.295410,94.148613 139.001602,94.001526 
	C139.001602,94.001526 139.025665,93.976082 138.784866,93.366577 
	C137.865051,92.892570 136.945236,92.418556 136.002197,91.998924 
	C136.002197,91.998924 136.052567,91.967926 135.745529,91.371208 
	C134.167374,90.237038 132.589233,89.102867 131.000397,88.004402 
	C131.000397,88.004402 131.033020,87.986191 130.715591,87.365814 
	C123.830910,84.208374 116.946220,81.050934 109.998421,77.959236 
	C109.998421,77.959236 110.084389,77.929008 109.672546,77.270920 
	C107.113403,76.916451 104.554260,76.561974 101.367973,76.055550 
	C100.596123,75.731155 99.824280,75.406761 98.713036,74.248009 
	C83.159775,74.135139 67.606514,74.022270 52.009876,72.984352 
	C52.053364,56.335522 52.096855,39.686691 52.566319,22.976460 
	C52.566319,22.976460 52.972645,22.834606 53.908371,22.952810 
	C65.334686,22.971691 76.772133,22.707649 88.181503,23.156971 
	C92.395180,23.322912 96.543320,25.166157 100.719994,26.249640 
	C101.798347,26.529379 102.871574,26.828918 104.250771,27.720379 
	C108.295563,31.330965 110.701897,35.808804 110.966187,41.242058 
	C111.189133,45.825268 111.118690,50.422752 111.029999,55.849953 
	C111.029999,57.477329 111.029999,59.104706 111.029999,60.741814 
	C114.394829,60.650959 123.337746,53.604340 124.516937,50.473907 
	C127.878532,41.549881 124.013290,25.855242 116.999390,20.001127 
	C116.999390,20.001127 117.016876,19.992508 116.804977,19.442736 
	C116.205544,18.954643 115.606117,18.466551 114.996468,18.002502 
	C114.996468,18.002502 115.022171,17.997946 114.879272,17.492357 
	C114.589615,17.313765 114.299950,17.135172 113.996513,17.003328 
	C113.996513,17.003328 114.043167,16.989239 113.881790,16.489872 
	C113.591377,16.313070 113.300957,16.136271 112.996452,16.003260 
	C112.996452,16.003260 113.040268,15.989263 112.876633,15.483430 
	C112.586685,15.293221 112.296730,15.103010 111.860771,14.468795 
	C111.678307,14.188108 111.420944,14.027294 110.721741,13.366126 
	C108.483856,12.563905 106.245972,11.761683 103.997505,11.004661 
	C103.997505,11.004661 104.040825,10.987993 103.758644,10.449101 
	C103.181015,10.366296 102.603386,10.283490 101.553635,10.059681 
	C101.553635,10.059681 101.064934,9.996738 100.695007,9.407027 
	C99.787804,9.340470 98.880592,9.273913 97.501015,9.093254 
	C97.501015,9.093254 97.022797,9.006840 96.896278,8.520984 
	C96.718071,8.218102 96.460526,8.016697 95.651718,7.171898 
	C76.782364,7.117290 57.913010,7.052881 39.043652,7.051551 
	C38.425995,7.051508 37.808289,7.693708 37.028343,8.956588 
	C37.079643,35.321064 37.130939,61.685543 37.477932,88.859367 
	C56.271736,88.859375 75.065544,88.859383 94.569481,88.964272 
	C95.045258,88.927841 95.521042,88.891403 96.772118,89.012688 
	C104.185318,91.621628 111.598511,94.230568 119.617912,97.121529 
	C120.478249,97.761452 121.338577,98.401375 122.192444,99.527138 
	C122.371880,99.831116 122.637421,99.998726 123.002518,99.999367 
	C123.002518,99.999367 122.973305,100.015297 123.250969,100.649391 
	C128.176941,105.767502 133.102905,110.885612 138.156601,116.473999 
	C138.336990,116.777161 138.602692,116.946465 139.039291,117.739929 
	C141.352051,122.523438 143.664810,127.306946 146.013596,132.505081 
	C146.013596,132.505081 145.922791,132.911255 145.425980,133.135254 
	C145.661804,133.748917 145.897644,134.362564 146.068314,135.748245 
	C146.440765,143.350113 146.984451,150.949173 147.109268,158.555099 
	C147.166718,162.055344 146.403687,165.569031 146.045059,169.489471 
	C146.045059,169.489471 145.997070,169.900787 145.322495,170.168289 
	C144.199005,172.788574 143.075500,175.408859 141.514664,178.163147 
	C141.236404,178.335083 141.072021,178.582642 140.347305,179.156448 
	C135.093994,185.532471 129.840668,191.908508 124.355850,198.323013 
	C124.355850,198.323013 124.272911,198.542526 123.738625,198.820724 
	C122.493828,199.594574 121.249023,200.368423 119.482239,201.130676 
	C119.290253,201.410004 119.098267,201.689316 118.461723,202.119995 
	C118.177338,202.302795 118.018669,202.562439 117.240738,203.032867 
	C115.655350,203.704590 114.115166,204.525909 112.476440,205.021103 
	C106.659218,206.778915 100.808380,208.425491 94.040985,210.018860 
	C76.831177,210.012405 59.621281,209.980957 42.411728,210.044434 
	C40.948341,210.049820 39.487293,210.688599 37.510014,211.293411 
	C39.648396,213.239227 41.786781,215.185043 43.988514,217.083786 
	C43.988514,217.083786 43.910351,217.072800 44.228271,217.660126 
	C46.809666,219.760117 49.391064,221.860107 52.375305,224.745422 
	C61.559811,224.782913 70.744316,224.820419 80.811363,224.997528 
	C84.225830,224.657883 87.647179,224.375534 91.053398,223.967133 
	C99.169922,222.993973 107.343643,222.300674 115.359161,220.781525 
	C118.461685,220.193497 121.199394,217.680603 124.797729,215.973236 
	C125.856133,215.255615 126.914528,214.537994 128.709915,213.943787 
	C129.355499,213.851456 130.177841,213.983261 130.620804,213.633942 
	C141.411179,205.125427 151.145020,195.619156 157.345123,183.144547 
	C164.878815,167.986801 165.092697,151.836548 162.639877,135.577881 
	C161.982178,131.218292 159.624481,127.115181 157.964706,122.161613 
	C155.944382,117.771873 154.188126,113.232887 151.818634,109.040497 
	C149.984222,105.794823 147.382507,102.982819 144.944809,99.453903 
	C144.637527,99.271240 144.330246,99.088577 143.819489,98.488052 
	C143.626419,98.225288 143.370148,98.061317 142.886887,97.496216 
	C142.596786,97.316872 142.306702,97.137527 141.998566,97.001495 
	C141.998566,97.001495 142.041458,96.982521 141.880432,96.487450 
	C141.590866,96.315849 141.301300,96.144241 140.998840,96.002113 
	C140.998840,96.002113 141.027573,95.987564 140.857468,95.505379 
	C140.575104,95.330925 140.292755,95.156471 139.999390,95.000610 
	C139.999390,95.000610 140.017792,94.989349 139.855682,94.505127 
M120.008667,115.987244 
	C120.008667,115.987244 120.071091,115.958252 119.855843,115.406021 
	C119.242729,114.922943 118.629623,114.439865 117.997154,114.000122 
	C117.997154,114.000122 118.041183,113.982422 117.793701,113.366959 
	C116.869705,112.892815 115.945702,112.418663 115.000519,111.998695 
	C115.000519,111.998695 115.057480,111.986801 114.882202,111.489822 
	C114.590462,111.311546 114.298729,111.133278 113.997070,111.002525 
	C113.997070,111.002525 114.041084,110.982048 113.760399,110.348061 
	C112.180748,109.547371 110.601097,108.746674 109.001106,107.999557 
	C109.001106,107.999557 109.056076,107.983307 108.877884,107.503609 
	C108.577431,107.405113 108.276978,107.306618 107.533379,107.067345 
	C107.533379,107.067345 107.073936,106.995895 106.670303,106.382011 
	C102.505600,104.923836 98.340889,103.465660 93.726044,101.234474 
	C75.215439,101.234474 56.704830,101.234474 37.568890,101.234474 
	C38.218143,102.491257 38.611206,103.252121 39.238434,104.593422 
	C40.172913,105.004822 41.107391,105.416229 42.477657,105.958015 
	C42.477657,105.958015 42.929138,106.013428 43.078789,106.695206 
	C44.714664,108.144508 46.350540,109.593811 48.246052,111.636719 
	C49.454853,112.468178 50.663654,113.299629 51.942093,114.097969 
	C51.942093,114.097969 51.906162,114.029739 52.310143,114.819679 
	C61.875187,114.836456 71.440231,114.853233 81.920464,115.028084 
	C93.737709,113.669502 103.512169,117.451561 111.176590,126.606911 
	C112.730392,128.462952 114.388100,130.232010 116.102333,132.515015 
	C116.102333,132.515015 116.254250,132.975815 116.120636,133.685394 
	C117.079536,135.474060 118.038437,137.262711 119.085648,139.672623 
	C119.137062,140.087387 119.188484,140.502136 119.044281,141.849228 
	C118.402374,147.895020 117.760475,153.940796 117.034264,160.780960 
	C117.099777,161.575760 117.165291,162.370544 117.110229,163.513962 
	C117.110229,163.513962 117.007614,163.868301 116.252831,163.939682 
	C112.151833,168.619720 108.050827,173.299759 104.002480,177.999481 
	C104.002480,177.999481 103.992592,177.944153 103.488533,178.109756 
	C103.290390,178.394089 103.092247,178.678421 102.279625,179.253433 
	C100.861420,179.890106 99.443222,180.526779 97.281441,181.064713 
	C95.172668,181.755859 93.063896,182.447006 90.023087,183.034164 
	C68.681374,183.081039 47.339657,183.127914 25.134789,182.991119 
	C24.759722,181.388992 24.067564,179.788849 24.057632,178.184464 
	C23.929314,157.454865 23.898125,136.724686 23.991848,115.068573 
	C23.995466,81.248856 24.011412,47.429111 23.960920,13.609472 
	C23.958736,12.145936 23.345179,10.683312 22.381874,9.120644 
	C21.461315,9.836107 20.540756,10.551570 19.371798,11.318852 
	C19.371798,11.318852 19.298992,11.561932 18.809858,11.837979 
	C18.180954,12.559122 17.552050,13.280264 16.336504,14.279398 
	C14.550673,16.160189 12.764843,18.040979 10.418388,20.145216 
	C9.944548,20.768070 9.470706,21.390924 8.196439,22.373510 
	C8.132542,22.867060 8.012774,23.360598 8.012674,23.854160 
	C8.001259,80.429115 7.992604,137.004074 8.039791,193.578995 
	C8.040733,194.708618 8.700065,195.837708 9.357880,197.789780 
	C35.252602,197.858047 61.147320,197.933746 87.042076,197.951630 
	C87.687263,197.952072 88.332886,197.313339 89.476448,196.927155 
	C89.637665,196.884598 89.798889,196.842056 90.763969,196.952454 
	C91.846931,196.920502 92.929886,196.888550 94.836098,196.980209 
	C103.385353,196.283813 110.489861,192.309219 117.651230,186.813217 
	C121.402153,182.209213 125.153076,177.605225 129.226990,172.359985 
	C134.530258,163.704132 135.959579,154.115295 134.792374,144.331726 
	C134.242477,139.722336 131.692947,135.351517 129.974045,130.140030 
	C127.030830,125.747513 124.087624,121.354996 120.913841,116.479126 
	C120.618332,116.293083 120.322823,116.107033 120.008667,115.987244 
z"/>
<path fill="#357AB4" opacity="1.000000" stroke="none" 
	d="
M127.972931,213.820374 
	C126.914528,214.537994 125.856133,215.255615 124.055267,216.009155 
	C116.744461,217.693237 110.244926,220.320023 103.593575,220.787704 
	C89.354713,221.788879 75.038170,221.715515 60.751709,221.993195 
	C55.836170,222.088745 50.655781,222.956253 47.137215,217.931305 
	C46.648891,217.233902 45.014297,217.339142 43.910351,217.072800 
	C43.910351,217.072800 43.988514,217.083786 43.930359,216.741699 
	C43.672951,215.187378 43.473705,213.975128 43.147381,211.989731 
	C60.497547,211.989731 77.246880,211.989731 94.416290,211.993561 
	C101.721085,210.067566 108.638351,208.241364 115.456871,206.100616 
	C116.529198,205.763962 117.153999,204.001907 117.985718,202.898911 
	C118.018669,202.562439 118.177338,202.302795 118.956032,202.060913 
	C119.631592,202.005585 119.812836,202.009308 120.370468,202.007187 
	C121.922211,200.848404 123.097565,199.695465 124.272911,198.542526 
	C124.272911,198.542526 124.355850,198.323013 124.817101,198.480865 
	C133.834122,194.700302 138.624023,187.757416 141.021484,178.905823 
	C141.072021,178.582642 141.236404,178.335083 141.968872,178.289047 
	C143.614410,175.576889 144.805740,172.738846 145.997070,169.900787 
	C145.997070,169.900787 146.045059,169.489471 146.378571,169.167236 
	C152.228073,157.679123 151.333496,146.205887 148.292984,134.649902 
	C148.211426,134.339981 147.458893,134.206589 146.876144,133.773224 
	C146.462967,133.340805 146.192871,133.126038 145.922791,132.911255 
	C145.922791,132.911255 146.013596,132.505081 146.234711,132.027557 
	C146.351212,125.460060 143.653320,120.705551 138.953674,116.981895 
	C138.602692,116.946465 138.336990,116.777161 138.091583,115.854507 
	C135.317596,107.878220 131.466476,101.651131 122.973305,100.015297 
	C122.973305,100.015297 123.002518,99.999367 122.906067,99.818939 
	C122.652969,99.391457 122.449394,99.192390 122.198906,99.041306 
	C121.338577,98.401375 120.478249,97.761452 119.246384,96.642120 
	C118.165649,95.282982 117.637779,94.023575 116.718185,93.584419 
	C110.171135,90.457832 103.585899,87.342308 95.724281,87.734367 
	C93.348694,87.073631 91.254921,86.288872 89.166512,86.302887 
	C72.158096,86.416992 55.150684,86.680458 38.121994,86.580795 
	C38.094608,85.838737 38.088192,85.414360 38.323250,84.658112 
	C38.675880,67.474373 38.795639,50.622543 38.862095,33.770508 
	C38.864399,33.186222 38.334431,32.599846 38.041737,31.612488 
	C38.036354,30.138327 38.041782,29.066122 38.296501,27.666382 
	C38.693188,22.875483 39.016544,18.408831 38.933136,13.949788 
	C38.864552,10.283056 40.353672,8.892416 43.969612,8.986001 
	C59.218964,9.380677 74.471184,9.675787 89.723770,9.918262 
	C91.483681,9.946241 93.252434,9.418124 95.238083,9.105377 
	C95.459076,9.062920 95.900337,8.974247 96.180740,8.989722 
	C96.648354,9.005745 96.835579,9.006292 97.022797,9.006840 
	C97.022797,9.006840 97.501015,9.093254 97.996964,9.352903 
	C99.350250,9.740614 100.207588,9.868676 101.064934,9.996738 
	C101.064934,9.996738 101.553635,10.059681 101.996780,10.318093 
	C102.973557,10.713668 103.507187,10.850830 104.040825,10.987993 
	C104.040825,10.987993 103.997505,11.004661 104.086136,11.334244 
	C106.479408,12.438004 108.784042,13.212179 111.088676,13.986355 
	C111.420944,14.027294 111.678307,14.188108 112.047180,14.921461 
	C112.502487,15.579171 112.771378,15.784216 113.040268,15.989262 
	C113.040268,15.989263 112.996452,16.003260 113.120003,16.203445 
	C113.510094,16.598833 113.776627,16.794037 114.043167,16.989239 
	C114.043167,16.989239 113.996513,17.003328 114.117393,17.201759 
	C114.440376,17.677076 114.701675,17.876328 115.022171,17.997946 
	C115.022171,17.997946 114.996468,18.002502 115.051941,18.305607 
	C115.743896,19.069975 116.380386,19.531242 117.016876,19.992508 
	C117.016876,19.992508 116.999390,20.001127 117.005165,20.365143 
	C118.678917,24.494564 120.465645,28.212555 121.991631,32.034649 
	C125.899712,41.823170 122.592941,52.198395 114.070053,57.466755 
	C113.090965,56.636337 112.134529,55.825127 111.178101,55.013916 
	C111.118690,50.422752 111.189133,45.825268 110.966187,41.242058 
	C110.701897,35.808804 108.295563,31.330965 104.055122,27.055550 
	C100.887497,24.923750 97.984329,22.373508 94.931488,22.179583 
	C82.511017,21.390600 70.045631,21.256294 57.593975,21.077778 
	C56.062241,21.055819 54.513504,22.220058 52.972645,22.834606 
	C52.972645,22.834606 52.566319,22.976460 52.213547,22.851536 
	C51.528751,22.803661 51.196735,22.880711 50.528629,23.073654 
	C49.885273,23.560184 49.305248,23.934368 49.310017,24.300945 
	C49.506649,39.414230 49.734871,54.527245 50.032242,69.638855 
	C50.060509,71.075356 50.563030,72.502518 50.985558,74.167770 
	C51.442177,74.552750 51.758610,74.703972 52.075176,74.926376 
	C52.075306,74.997551 51.987400,75.109520 52.320435,75.356216 
	C67.202690,75.714272 81.751877,75.835152 96.301308,75.902916 
	C96.896858,75.905701 97.494736,75.409096 98.329185,75.090210 
	C98.566849,75.035255 99.052429,75.082367 99.052429,75.082367 
	C99.824280,75.406761 100.596123,75.731155 101.911766,76.425385 
	C104.998505,77.173149 107.541443,77.551079 110.084389,77.929008 
	C110.084389,77.929008 109.998421,77.959236 110.101837,78.279282 
	C111.912552,79.450584 113.590271,80.368622 115.332718,81.140564 
	C120.552574,83.453079 125.797737,85.708496 131.033020,87.986191 
	C131.033020,87.986191 131.000397,88.004402 131.016388,88.356979 
	C132.705780,89.795677 134.379166,90.881805 136.052567,91.967926 
	C136.052567,91.967926 136.002197,91.998924 136.078888,92.310112 
	C137.112259,93.072891 138.068970,93.524490 139.025665,93.976082 
	C139.025665,93.976082 139.001602,94.001526 139.120575,94.204689 
	C139.439728,94.680969 139.699142,94.874802 140.017792,94.989349 
	C140.017792,94.989349 139.999390,95.000610 140.120361,95.208344 
	C140.445587,95.686119 140.707657,95.876617 141.027573,95.987564 
	C141.027573,95.987564 140.998840,96.002113 141.122910,96.205521 
	C141.453934,96.680298 141.718765,96.871490 142.041458,96.982521 
	C142.041458,96.982521 141.998566,97.001495 142.124680,97.202759 
	C142.517426,97.601395 142.784058,97.798759 143.050674,97.996124 
	C143.370148,98.061317 143.626419,98.225288 144.042145,98.932693 
	C144.550491,99.577560 144.836197,99.777794 145.121887,99.978027 
	C147.382507,102.982819 149.984222,105.794823 151.818634,109.040497 
	C154.188126,113.232887 155.944382,117.771873 157.989120,122.962463 
	C158.065765,125.092346 157.824158,126.515930 158.216614,127.735497 
	C161.420700,137.692581 161.552551,147.898666 161.032455,158.198196 
	C160.469055,169.355179 158.194321,180.210541 151.138489,188.943176 
	C144.634842,196.992416 136.731186,203.908463 129.484360,211.362701 
	C128.830124,212.035675 128.469757,212.994354 127.972931,213.820374 
z"/>
<path fill="#367AB4" opacity="1.000000" stroke="none" 
	d="
M10.979012,19.921770 
	C12.764843,18.040979 14.550673,16.160189 17.006676,14.133160 
	C18.217562,13.178591 18.758276,12.370261 19.298992,11.561932 
	C19.298992,11.561932 19.371798,11.318852 19.858643,11.585365 
	C20.887981,13.979992 21.900620,16.107311 21.904211,18.236334 
	C21.993971,71.424164 21.964743,124.612183 22.027308,177.800079 
	C22.029713,179.845291 22.734549,181.889664 23.339252,183.973495 
	C23.566437,184.012558 24.005852,184.150742 24.265305,184.393127 
	C27.729628,184.760849 30.934309,184.988495 34.139404,184.994537 
	C52.084564,185.028366 70.033852,185.203995 87.971474,184.833801 
	C91.346466,184.764175 94.675034,182.444733 98.025024,181.163452 
	C99.443222,180.526779 100.861420,179.890106 102.819519,178.997620 
	C103.570480,178.475922 103.781532,178.210037 103.992584,177.944153 
	C103.992592,177.944153 104.002480,177.999481 104.360077,178.001755 
	C110.465813,176.935104 115.845078,170.747940 117.007614,163.868301 
	C117.007614,163.868301 117.110229,163.513962 117.365158,163.305908 
	C117.620094,163.097870 118.006943,163.018875 118.208847,162.891724 
	C118.660019,162.556549 118.847084,162.302704 118.983704,161.672394 
	C119.014038,160.901276 119.032600,160.460770 119.302597,159.733154 
	C119.896187,158.533157 120.522980,157.623581 120.533516,156.706924 
	C120.594398,151.409561 122.793091,145.916702 119.239899,140.916901 
	C119.188484,140.502136 119.137062,140.087387 119.251007,139.125275 
	C118.362328,136.710541 117.308289,134.843185 116.254250,132.975815 
	C116.254250,132.975815 116.102333,132.515015 116.051895,131.894821 
	C115.189819,129.544525 114.714767,127.523552 113.511848,126.131584 
	C105.753838,117.154388 96.414459,111.513695 83.644699,112.681137 
	C74.675941,112.299324 66.033989,112.123344 57.391495,112.091202 
	C56.597820,112.088242 55.800728,113.003830 54.623314,113.587311 
	C53.462994,113.797737 52.684578,113.913742 51.906162,114.029739 
	C51.906162,114.029739 51.942093,114.097969 51.913879,113.765610 
	C50.603119,112.289627 49.320568,111.145988 47.867844,109.703537 
	C46.108158,108.274277 44.518650,107.143852 42.929138,106.013428 
	C42.929138,106.013428 42.477657,105.958015 42.252743,105.588799 
	C42.026695,104.814079 42.025562,104.408569 42.311543,103.868698 
	C43.401161,103.487144 44.203671,103.239960 45.377045,102.997330 
	C46.489658,103.009697 47.231407,103.017532 48.034882,103.296249 
	C48.738342,103.384705 49.380074,103.202271 50.489079,103.014999 
	C64.635109,103.013161 78.313873,103.016159 92.269600,103.261215 
	C97.389023,104.667473 102.231483,105.831688 107.073936,106.995895 
	C107.073936,106.995895 107.533379,107.067345 107.901413,107.310616 
	C108.493233,107.767433 108.755440,107.910576 109.056076,107.983307 
	C109.056076,107.983307 109.001106,107.999557 109.078522,108.319351 
	C110.784317,109.420105 112.412704,110.201080 114.041084,110.982048 
	C114.041084,110.982048 113.997070,111.002525 114.124023,111.199951 
	C114.519814,111.593849 114.788643,111.790329 115.057480,111.986801 
	C115.057480,111.986801 115.000519,111.998695 115.078140,112.310654 
	C116.117577,113.075882 117.079376,113.529152 118.041183,113.982422 
	C118.041183,113.982422 117.997154,114.000122 118.060272,114.295914 
	C118.772614,115.047226 119.421852,115.502739 120.071091,115.958252 
	C120.071091,115.958252 120.008667,115.987244 120.147118,116.183243 
	C120.571854,116.573647 120.858131,116.768066 121.144417,116.962479 
	C124.087624,121.354996 127.030830,125.747513 130.012360,130.914856 
	C133.616821,144.126144 134.738953,156.461609 128.792236,168.597229 
	C128.162216,169.882935 128.181000,171.486557 127.566765,173.017563 
	C123.815262,177.044800 120.395767,180.997162 116.634674,185.014038 
	C109.882271,190.813721 101.889458,193.303497 93.623970,195.960571 
	C92.167641,196.242508 91.063881,196.520996 89.960114,196.799500 
	C89.798889,196.842056 89.637665,196.884598 88.981163,196.949554 
	C88.485878,196.971970 88.006226,196.860794 87.665298,196.626129 
	C85.346260,196.255829 83.368263,196.004379 81.390015,196.002304 
	C59.932682,195.979706 38.475307,196.000793 17.017948,195.999496 
	C10.054261,195.999069 10.023931,195.971542 10.023359,189.075745 
	C10.019049,137.012527 10.009106,84.949287 10.059611,32.886116 
	C10.062161,30.257452 10.605795,27.629311 10.929884,24.580469 
	C10.967854,22.747265 10.973433,21.334518 10.979012,19.921770 
z"/>
<path fill="#48769A" opacity="1.000000" stroke="none" 
	d="
M128.341431,213.882080 
	C128.469757,212.994354 128.830124,212.035675 129.484360,211.362701 
	C136.731186,203.908463 144.634842,196.992416 151.138489,188.943176 
	C158.194321,180.210541 160.469055,169.355179 161.032455,158.198196 
	C161.552551,147.898666 161.420700,137.692581 158.216614,127.735497 
	C157.824158,126.515930 158.065765,125.092346 158.030365,123.328812 
	C159.624481,127.115181 161.982178,131.218292 162.639877,135.577881 
	C165.092697,151.836548 164.878815,167.986801 157.345123,183.144547 
	C151.145020,195.619156 141.411179,205.125427 130.620804,213.633942 
	C130.177841,213.983261 129.355499,213.851456 128.341431,213.882080 
z"/>
<path fill="#487493" opacity="1.000000" stroke="none" 
	d="
M23.112072,183.934433 
	C22.734549,181.889664 22.029713,179.845291 22.027308,177.800079 
	C21.964743,124.612183 21.993971,71.424164 21.904211,18.236334 
	C21.900620,16.107311 20.887981,13.979992 19.982841,11.559456 
	C20.540756,10.551570 21.461315,9.836107 22.699039,9.622662 
	C23.058954,45.414715 23.101706,80.704750 23.084621,116.460632 
	C23.053883,139.262466 23.082977,161.598450 23.112072,183.934433 
z"/>
<path fill="#487A9F" opacity="1.000000" stroke="none" 
	d="
M44.069313,217.366455 
	C45.014297,217.339142 46.648891,217.233902 47.137215,217.931305 
	C50.655781,222.956253 55.836170,222.088745 60.751709,221.993195 
	C75.038170,221.715515 89.354713,221.788879 103.593575,220.787704 
	C110.244926,220.320023 116.744461,217.693237 123.708054,216.044846 
	C121.199394,217.680603 118.461685,220.193497 115.359161,220.781525 
	C107.343643,222.300674 99.169922,222.993973 91.053398,223.967133 
	C87.647179,224.375534 84.225830,224.657883 80.087090,224.623260 
	C70.232697,224.152710 61.102573,224.056412 51.972458,223.960114 
	C49.391064,221.860107 46.809666,219.760117 44.069313,217.366455 
z"/>
<path fill="#BDDAE6" opacity="1.000000" stroke="none" 
	d="
M9.052230,196.967041 
	C8.700065,195.837708 8.040733,194.708618 8.039791,193.578995 
	C7.992604,137.004074 8.001259,80.429115 8.012674,23.854160 
	C8.012774,23.360598 8.132542,22.867060 8.590578,22.568359 
	C9.046773,23.508434 9.108829,24.253656 9.112622,25.464443 
	C9.024806,82.956543 8.995251,139.983093 8.995064,197.014679 
	C9.024432,197.019714 9.052230,196.967041 9.052230,196.967041 
z"/>
<path fill="#46769E" opacity="1.000000" stroke="none" 
	d="
M111.104050,55.431934 
	C112.134529,55.825127 113.090965,56.636337 114.070053,57.466755 
	C122.592941,52.198395 125.899712,41.823170 121.991631,32.034649 
	C120.465645,28.212555 118.678917,24.494564 117.009445,20.356556 
	C124.013290,25.855242 127.878532,41.549881 124.516937,50.473907 
	C123.337746,53.604340 114.394829,60.650959 111.029999,60.741814 
	C111.029999,59.104706 111.029999,57.477329 111.104050,55.431934 
z"/>
<path fill="#BBDCEC" opacity="1.000000" stroke="none" 
	d="
M23.144455,115.994781 
	C23.101706,80.704750 23.058954,45.414715 23.016312,9.672471 
	C23.345179,10.683312 23.958736,12.145936 23.960920,13.609472 
	C24.011412,47.429111 23.995466,81.248856 23.742636,115.532196 
	C23.493423,115.995827 23.144455,115.994781 23.144455,115.994781 
z"/>
<path fill="#4778A0" opacity="1.000000" stroke="none" 
	d="
M53.440506,22.893707 
	C54.513504,22.220058 56.062241,21.055819 57.593975,21.077778 
	C70.045631,21.256294 82.511017,21.390600 94.931488,22.179583 
	C97.984329,22.373508 100.887497,24.923750 103.903313,26.755041 
	C102.871574,26.828918 101.798347,26.529379 100.719994,26.249640 
	C96.543320,25.166157 92.395180,23.322912 88.181503,23.156971 
	C76.772133,22.707649 65.334686,22.971691 53.440506,22.893707 
z"/>
<path fill="#4B789E" opacity="1.000000" stroke="none" 
	d="
M127.898773,172.942688 
	C128.181000,171.486557 128.162216,169.882935 128.792236,168.597229 
	C134.738953,156.461609 133.616821,144.126144 130.050079,131.281128 
	C131.692947,135.351517 134.242477,139.722336 134.792374,144.331726 
	C135.959579,154.115295 134.530258,163.704132 128.813782,172.673157 
	C128.233307,172.971756 128.066040,172.957214 127.898773,172.942688 
z"/>
<path fill="#517DA2" opacity="1.000000" stroke="none" 
	d="
M83.971352,112.926147 
	C96.414459,111.513695 105.753838,117.154388 113.511848,126.131584 
	C114.714767,127.523552 115.189819,129.544525 115.999680,131.657898 
	C114.388100,130.232010 112.730392,128.462952 111.176590,126.606911 
	C103.512169,117.451561 93.737709,113.669502 81.499512,114.664551 
	C81.105591,114.111580 81.132637,113.922142 81.385986,113.539612 
	C82.398636,113.206398 83.184998,113.066269 83.971352,112.926147 
z"/>
<path fill="#4A789E" opacity="1.000000" stroke="none" 
	d="
M147.019241,133.990875 
	C147.458893,134.206589 148.211426,134.339981 148.292984,134.649902 
	C151.333496,146.205887 152.228073,157.679123 146.362396,168.960815 
	C146.403687,165.569031 147.166718,162.055344 147.109268,158.555099 
	C146.984451,150.949173 146.440765,143.350113 146.283966,135.232574 
	C146.724182,134.511642 146.897385,134.269638 147.019241,133.990875 
z"/>
<path fill="#47779B" opacity="1.000000" stroke="none" 
	d="
M97.653229,181.114075 
	C94.675034,182.444733 91.346466,184.764175 87.971474,184.833801 
	C70.033852,185.203995 52.084564,185.028366 34.139404,184.994537 
	C30.934309,184.988495 27.729628,184.760849 24.595715,184.332626 
	C25.108532,183.958847 25.550390,183.887985 26.457581,183.882889 
	C46.852818,183.966873 66.782753,184.002701 86.712555,183.965851 
	C88.127251,183.963242 89.540955,183.426529 90.955124,183.138153 
	C93.063896,182.447006 95.172668,181.755859 97.653229,181.114075 
z"/>
<path fill="#6F92AB" opacity="1.000000" stroke="none" 
	d="
M38.081772,84.989983 
	C38.088192,85.414360 38.094608,85.838737 38.088608,86.828583 
	C38.076187,87.394058 38.064224,87.891472 37.848030,87.955063 
	C37.631840,88.018646 37.182240,88.050018 37.182240,88.050018 
	C37.130939,61.685543 37.079643,35.321064 37.338921,8.516550 
	C37.649498,8.076513 38.088757,8.217003 38.063026,8.668261 
	C38.040600,15.410985 38.043903,21.702452 38.047207,27.993917 
	C38.041782,29.066122 38.036354,30.138327 38.021614,32.078785 
	C38.035461,50.294689 38.058617,67.642334 38.081772,84.989983 
z"/>
<path fill="#B6D3E2" opacity="1.000000" stroke="none" 
	d="
M88.006226,196.860794 
	C88.006226,196.860794 88.485878,196.971970 88.732086,196.972336 
	C88.332886,197.313339 87.687263,197.952072 87.042076,197.951630 
	C61.147320,197.933746 35.252602,197.858047 9.205055,197.378418 
	C9.052230,196.967041 9.024432,197.019714 9.465986,197.009979 
	C35.940434,196.953751 61.973331,196.907272 88.006226,196.860794 
z"/>
<path fill="#4A7594" opacity="1.000000" stroke="none" 
	d="
M93.996216,211.989731 
	C77.246880,211.989731 60.497547,211.989731 43.147381,211.989731 
	C43.473705,213.975128 43.672951,215.187378 43.898682,216.765244 
	C41.786781,215.185043 39.648396,213.239227 38.234257,211.142883 
	C57.304047,211.048004 75.649597,211.103653 93.995636,211.366913 
	C93.996124,211.574524 93.996216,211.989731 93.996216,211.989731 
z"/>
<path fill="#BDDAE6" opacity="1.000000" stroke="none" 
	d="
M25.992249,183.817108 
	C25.550390,183.887985 25.108532,183.958847 24.336262,184.090240 
	C24.005852,184.150742 23.566437,184.012558 23.339254,183.973495 
	C23.082977,161.598450 23.053883,139.262466 23.084621,116.460632 
	C23.144455,115.994781 23.493423,115.995827 23.667908,115.995239 
	C23.898125,136.724686 23.929314,157.454865 24.057632,178.184464 
	C24.067564,179.788849 24.759722,181.388992 25.565029,183.243530 
	C25.995272,183.495956 25.992249,183.817108 25.992249,183.817108 
z"/>
<path fill="#C1D4DE" opacity="1.000000" stroke="none" 
	d="
M26.457581,183.882889 
	C25.992249,183.817108 25.995272,183.495956 25.996607,183.335373 
	C47.339657,183.127914 68.681374,183.081039 90.489105,183.086151 
	C89.540955,183.426529 88.127251,183.963242 86.712555,183.965851 
	C66.782753,184.002701 46.852818,183.966873 26.457581,183.882889 
z"/>
<path fill="#43779F" opacity="1.000000" stroke="none" 
	d="
M38.064224,87.891464 
	C38.064224,87.891472 38.076187,87.394058 38.109573,87.146263 
	C55.150684,86.680458 72.158096,86.416992 89.166512,86.302887 
	C91.254921,86.288872 93.348694,87.073631 95.720825,87.953094 
	C96.001678,88.417961 95.996819,88.854965 95.996819,88.854965 
	C95.521042,88.891403 95.045258,88.927841 93.929703,88.619278 
	C74.881355,88.146683 56.472790,88.019073 38.064224,87.891464 
z"/>
<path fill="#C4D5DE" opacity="1.000000" stroke="none" 
	d="
M38.088757,8.217003 
	C38.088757,8.217003 37.649498,8.076513 37.420052,8.056520 
	C37.808289,7.693708 38.425995,7.051508 39.043652,7.051551 
	C57.913010,7.052881 76.782364,7.117290 95.821960,7.806333 
	C95.961586,8.618594 95.930962,8.796420 95.900337,8.974247 
	C95.900337,8.974247 95.459076,9.062920 94.865204,8.896646 
	C93.491325,8.503409 92.711121,8.077842 91.931335,8.078628 
	C73.983780,8.096696 56.036274,8.161163 38.088757,8.217003 
z"/>
<path fill="#C4D5DE" opacity="1.000000" stroke="none" 
	d="
M39.004269,104.012985 
	C38.611206,103.252121 38.218143,102.491257 37.568890,101.234474 
	C56.704830,101.234474 75.215439,101.234474 93.589554,101.660141 
	C92.970398,102.125061 92.487724,102.164307 91.541779,102.124222 
	C75.719002,102.079224 60.359501,102.113556 44.611290,102.093506 
	C42.783596,102.335060 41.344616,102.630997 39.679424,103.036339 
	C39.303562,103.434822 39.153915,103.723907 39.004269,104.012985 
z"/>
<path fill="#BED9E7" opacity="1.000000" stroke="none" 
	d="
M93.995140,211.159302 
	C75.649597,211.103653 57.304047,211.048004 38.491829,211.012756 
	C39.487293,210.688599 40.948341,210.049820 42.411728,210.044434 
	C59.621281,209.980957 76.831177,210.012405 94.433655,210.308044 
	C94.549255,210.784607 94.272194,210.971954 93.995140,211.159302 
z"/>
<path fill="#C3DFE2" opacity="1.000000" stroke="none" 
	d="
M37.848030,87.955055 
	C56.472790,88.019073 74.881355,88.146683 93.574631,88.566841 
	C75.065544,88.859383 56.271736,88.859375 37.330086,88.454697 
	C37.182240,88.050018 37.631840,88.018646 37.848030,87.955055 
z"/>
<path fill="#49789C" opacity="1.000000" stroke="none" 
	d="
M93.976532,195.957153 
	C101.889458,193.303497 109.882271,190.813721 116.649246,185.385895 
	C117.031448,186.187302 117.057480,186.681366 117.083504,187.175446 
	C110.489861,192.309219 103.385353,196.283813 94.416054,196.693512 
	C93.996010,196.406815 93.976532,195.957153 93.976532,195.957153 
z"/>
<path fill="#47779B" opacity="1.000000" stroke="none" 
	d="
M93.995636,211.366913 
	C94.272194,210.971954 94.549255,210.784607 94.898300,210.355743 
	C100.808380,208.425491 106.659218,206.778915 112.476440,205.021103 
	C114.115166,204.525909 115.655350,203.704590 117.613228,202.965881 
	C117.153999,204.001907 116.529198,205.763962 115.456871,206.100616 
	C108.638351,208.241364 101.721085,210.067566 94.416290,211.993561 
	C93.996216,211.989731 93.996124,211.574524 93.995636,211.366913 
z"/>
<path fill="#517D9E" opacity="1.000000" stroke="none" 
	d="
M140.684387,179.031128 
	C138.624023,187.757416 133.834122,194.700302 124.932846,198.461639 
	C129.840668,191.908508 135.093994,185.532471 140.684387,179.031128 
z"/>
<path fill="#9ABBD0" opacity="1.000000" stroke="none" 
	d="
M50.864716,22.957760 
	C51.196735,22.880711 51.528751,22.803661 52.000557,22.882236 
	C52.096855,39.686691 52.053364,56.335522 52.044128,73.683037 
	C52.078377,74.381721 52.075047,74.855202 52.075047,74.855202 
	C51.758610,74.703972 51.442177,74.552750 51.040672,73.708191 
	C50.925312,56.329166 50.895012,39.643463 50.864716,22.957760 
z"/>
<path fill="#44779C" opacity="1.000000" stroke="none" 
	d="
M96.384468,88.933823 
	C95.996819,88.854965 96.001678,88.417961 96.005127,88.199234 
	C103.585899,87.342308 110.171135,90.457832 116.718185,93.584419 
	C117.637779,94.023575 118.165649,95.282982 118.943283,96.501106 
	C111.598511,94.230568 104.185318,91.621628 96.384468,88.933823 
z"/>
<path fill="#507AA1" opacity="1.000000" stroke="none" 
	d="
M123.112137,100.332344 
	C131.466476,101.651131 135.317596,107.878220 138.027710,115.619362 
	C133.102905,110.885612 128.176941,105.767502 123.112137,100.332344 
z"/>
<path fill="#BED9E7" opacity="1.000000" stroke="none" 
	d="
M52.075176,74.926376 
	C52.075047,74.855202 52.078377,74.381721 52.065815,74.145561 
	C67.606514,74.022270 83.159775,74.135139 98.882736,74.665192 
	C99.052429,75.082367 98.566849,75.035255 97.851929,75.033066 
	C82.087135,75.057098 67.037270,75.083313 51.987400,75.109520 
	C51.987400,75.109520 52.075306,74.997551 52.075176,74.926376 
z"/>
<path fill="#4579A2" opacity="1.000000" stroke="none" 
	d="
M130.874298,87.676003 
	C125.797737,85.708496 120.552574,83.453079 115.332718,81.140564 
	C113.590271,80.368622 111.912552,79.450584 110.133392,78.246414 
	C116.946220,81.050934 123.830910,84.208374 130.874298,87.676003 
z"/>
<path fill="#4D7795" opacity="1.000000" stroke="none" 
	d="
M116.630219,163.903992 
	C115.845078,170.747940 110.465813,176.935104 104.333755,177.991913 
	C108.050827,173.299759 112.151833,168.619720 116.630219,163.903992 
z"/>
<path fill="#4B789E" opacity="1.000000" stroke="none" 
	d="
M119.142090,141.383057 
	C122.793091,145.916702 120.594398,151.409561 120.533516,156.706924 
	C120.522980,157.623581 119.896187,158.533157 118.979874,159.726456 
	C117.976662,160.000122 117.547607,159.993347 117.118561,159.986588 
	C117.760475,153.940796 118.402374,147.895020 119.142090,141.383057 
z"/>
<path fill="#467498" opacity="1.000000" stroke="none" 
	d="
M117.367371,186.994324 
	C117.057480,186.681366 117.031448,186.187302 116.990845,185.321381 
	C120.395767,180.997162 123.815262,177.044800 127.566772,173.017563 
	C128.066040,172.957214 128.233307,172.971756 128.652283,172.993774 
	C125.153076,177.605225 121.402153,182.209213 117.367371,186.994324 
z"/>
<path fill="#507AA1" opacity="1.000000" stroke="none" 
	d="
M138.996490,117.360916 
	C143.653320,120.705551 146.351212,125.460060 146.216705,131.820236 
	C143.664810,127.306946 141.352051,122.523438 138.996490,117.360916 
z"/>
<path fill="#BFBFC3" opacity="1.000000" stroke="none" 
	d="
M81.159691,113.732712 
	C81.132637,113.922142 81.105591,114.111580 81.041916,114.585510 
	C71.440231,114.853233 61.875187,114.836456 52.108154,114.424713 
	C52.684578,113.913742 53.462994,113.797737 55.079475,113.699646 
	C64.331589,113.722618 72.745644,113.727661 81.159691,113.732712 
z"/>
<path fill="#C3DFE2" opacity="1.000000" stroke="none" 
	d="
M52.173882,224.352768 
	C61.102573,224.056412 70.232697,224.152710 79.645813,224.553467 
	C70.744316,224.820419 61.559811,224.782913 52.173882,224.352768 
z"/>
<path fill="#47779D" opacity="1.000000" stroke="none" 
	d="
M92.005051,102.203560 
	C92.487724,102.164307 92.970398,102.125061 93.814629,102.046646 
	C98.340889,103.465660 102.505600,104.923836 106.872116,106.688950 
	C102.231483,105.831688 97.389023,104.667473 92.273338,103.057205 
	C92.000107,102.611153 92.005051,102.203560 92.005051,102.203560 
z"/>
<path fill="#4A789E" opacity="1.000000" stroke="none" 
	d="
M145.659790,170.034546 
	C144.805740,172.738846 143.614410,175.576889 142.187531,178.222046 
	C143.075500,175.408859 144.199005,172.788574 145.659790,170.034546 
z"/>
<path fill="#4078A3" opacity="1.000000" stroke="none" 
	d="
M43.003963,106.354317 
	C44.518650,107.143852 46.108158,108.274277 47.854362,109.963669 
	C48.002846,110.696121 47.994633,110.869614 47.986420,111.043114 
	C46.350540,109.593811 44.714664,108.144508 43.003963,106.354317 
z"/>
<path fill="#4B789E" opacity="1.000000" stroke="none" 
	d="
M116.187439,133.330597 
	C117.308289,134.843185 118.362328,136.710541 119.206848,138.814636 
	C118.038437,137.262711 117.079536,135.474060 116.187439,133.330597 
z"/>
<path fill="#4D7CA1" opacity="1.000000" stroke="none" 
	d="
M110.905212,13.676241 
	C108.784042,13.212179 106.479408,12.438004 104.091431,11.311645 
	C106.245972,11.761683 108.483856,12.563905 110.905212,13.676241 
z"/>
<path fill="#4579A2" opacity="1.000000" stroke="none" 
	d="
M135.899048,91.669571 
	C134.379166,90.881805 132.705780,89.795677 131.021729,88.339119 
	C132.589233,89.102867 134.167374,90.237038 135.899048,91.669571 
z"/>
<path fill="#4579A2" opacity="1.000000" stroke="none" 
	d="
M109.878464,77.599960 
	C107.541443,77.551079 104.998505,77.173149 102.225342,76.501358 
	C104.554260,76.561974 107.113403,76.916451 109.878464,77.599960 
z"/>
<path fill="#517D9E" opacity="1.000000" stroke="none" 
	d="
M124.005768,198.681625 
	C123.097565,199.695465 121.922211,200.848404 120.372475,201.789307 
	C119.998093,201.577271 120.004227,201.142273 120.004227,201.142273 
	C121.249023,200.368423 122.493828,199.594574 124.005768,198.681625 
z"/>
<path fill="#517DA2" opacity="1.000000" stroke="none" 
	d="
M48.116234,111.339920 
	C47.994633,110.869614 48.002846,110.696121 48.024536,110.262489 
	C49.320568,111.145988 50.603119,112.289627 51.879059,113.782166 
	C50.663654,113.299629 49.454853,112.468178 48.116234,111.339920 
z"/>
<path fill="#47779D" opacity="1.000000" stroke="none" 
	d="
M113.900742,110.665054 
	C112.412704,110.201080 110.784317,109.420105 109.088692,108.292557 
	C110.601097,108.746674 112.180748,109.547371 113.900742,110.665054 
z"/>
<path fill="#487493" opacity="1.000000" stroke="none" 
	d="
M9.170884,24.998880 
	C9.108829,24.253656 9.046773,23.508434 8.990791,22.388496 
	C9.470706,21.390924 9.944548,20.768070 10.698700,20.033493 
	C10.973433,21.334518 10.967854,22.747265 10.643419,24.580187 
	C9.940004,24.999866 9.555445,24.999372 9.170884,24.998880 
z"/>
<path fill="#49789C" opacity="1.000000" stroke="none" 
	d="
M39.121353,104.303207 
	C39.153915,103.723907 39.303562,103.434822 39.947037,103.164993 
	C40.968719,103.457184 41.496574,103.730125 42.024429,104.003067 
	C42.025562,104.408569 42.026695,104.814079 42.034851,105.523605 
	C41.107391,105.416229 40.172913,105.004822 39.121353,104.303207 
z"/>
<path fill="#487493" opacity="1.000000" stroke="none" 
	d="
M19.054424,11.699955 
	C18.758276,12.370261 18.217562,13.178591 17.299995,13.994164 
	C17.552050,13.280264 18.180954,12.559122 19.054424,11.699955 
z"/>
<path fill="#4D7795" opacity="1.000000" stroke="none" 
	d="
M117.076416,160.383774 
	C117.547607,159.993347 117.976662,160.000122 118.728432,160.013580 
	C119.032600,160.460770 119.014038,160.901276 118.785484,161.802826 
	C118.329414,162.472961 118.139893,162.724609 118.006943,163.018875 
	C118.006943,163.018875 117.620094,163.097870 117.425446,163.131607 
	C117.165291,162.370544 117.099777,161.575760 117.076416,160.383774 
z"/>
<path fill="#47779D" opacity="1.000000" stroke="none" 
	d="
M117.917442,113.674690 
	C117.079376,113.529152 116.117577,113.075882 115.088737,112.283562 
	C115.945702,112.418663 116.869705,112.892815 117.917442,113.674690 
z"/>
<path fill="#4579A2" opacity="1.000000" stroke="none" 
	d="
M138.905273,93.671326 
	C138.068970,93.524490 137.112259,93.072891 136.090485,92.282928 
	C136.945236,92.418556 137.865051,92.892570 138.905273,93.671326 
z"/>
<path fill="#487593" opacity="1.000000" stroke="none" 
	d="
M93.623970,195.960571 
	C93.976532,195.957153 93.996010,196.406815 94.004425,196.631714 
	C92.929886,196.888550 91.846931,196.920502 90.362045,196.875977 
	C91.063881,196.520996 92.167641,196.242508 93.623970,195.960571 
z"/>
<path fill="#4D7CA1" opacity="1.000000" stroke="none" 
	d="
M100.879974,9.701883 
	C100.207588,9.868676 99.350250,9.740614 98.233147,9.409954 
	C98.880592,9.273913 99.787804,9.340470 100.879974,9.701883 
z"/>
<path fill="#47779D" opacity="1.000000" stroke="none" 
	d="
M119.963470,115.682144 
	C119.421852,115.502739 118.772614,115.047226 118.069946,114.274246 
	C118.629623,114.439865 119.242729,114.922943 119.963470,115.682144 
z"/>
<path fill="#507AA1" opacity="1.000000" stroke="none" 
	d="
M146.876144,133.773224 
	C146.897385,134.269638 146.724182,134.511642 146.316528,134.846558 
	C145.897644,134.362564 145.661804,133.748917 145.674377,133.023254 
	C146.192871,133.126038 146.462967,133.340805 146.876144,133.773224 
z"/>
<path fill="#46769E" opacity="1.000000" stroke="none" 
	d="
M116.910927,19.717621 
	C116.380386,19.531242 115.743896,19.069975 115.057045,18.293583 
	C115.606117,18.466551 116.205544,18.954643 116.910927,19.717621 
z"/>
<path fill="#4D7CA1" opacity="1.000000" stroke="none" 
	d="
M103.899734,10.718548 
	C103.507187,10.850830 102.973557,10.713668 102.232834,10.388595 
	C102.603386,10.283490 103.181015,10.366296 103.899734,10.718548 
z"/>
<path fill="#47779B" opacity="1.000000" stroke="none" 
	d="
M119.743233,201.136475 
	C120.004227,201.142273 119.998093,201.577271 119.996086,201.795166 
	C119.812836,202.009308 119.631592,202.005585 119.178314,201.985245 
	C119.098267,201.689316 119.290253,201.410004 119.743233,201.136475 
z"/>
<path fill="#4579A2" opacity="1.000000" stroke="none" 
	d="
M142.968781,97.746170 
	C142.784058,97.798759 142.517426,97.601395 142.133698,97.181107 
	C142.306702,97.137527 142.596786,97.316872 142.968781,97.746170 
z"/>
<path fill="#46769E" opacity="1.000000" stroke="none" 
	d="
M112.958450,15.736345 
	C112.771378,15.784216 112.502487,15.579171 112.120193,15.143463 
	C112.296730,15.103010 112.586685,15.293221 112.958450,15.736345 
z"/>
<path fill="#4D7CA1" opacity="1.000000" stroke="none" 
	d="
M96.180740,8.989722 
	C95.930962,8.796420 95.961586,8.618594 96.057922,8.178770 
	C96.460526,8.016697 96.718071,8.218102 96.959534,8.763912 
	C96.835579,9.006292 96.648354,9.005745 96.180740,8.989722 
z"/>
<path fill="#46769E" opacity="1.000000" stroke="none" 
	d="
M113.962479,16.739555 
	C113.776627,16.794037 113.510094,16.598833 113.127045,16.181551 
	C113.300957,16.136271 113.591377,16.313070 113.962479,16.739555 
z"/>
<path fill="#46769E" opacity="1.000000" stroke="none" 
	d="
M114.950722,17.745152 
	C114.701675,17.876328 114.440376,17.677076 114.124283,17.178387 
	C114.299950,17.135172 114.589615,17.313765 114.950722,17.745152 
z"/>
<path fill="#4D7795" opacity="1.000000" stroke="none" 
	d="
M103.740555,178.026947 
	C103.781532,178.210037 103.570480,178.475922 103.126770,178.852295 
	C103.092247,178.678421 103.290390,178.394089 103.740555,178.026947 
z"/>
<path fill="#507AA1" opacity="1.000000" stroke="none" 
	d="
M122.195679,99.284225 
	C122.449394,99.192390 122.652969,99.391457 122.899338,99.834244 
	C122.637421,99.998726 122.371880,99.831116 122.195679,99.284225 
z"/>
<path fill="#4579A2" opacity="1.000000" stroke="none" 
	d="
M145.033356,99.715965 
	C144.836197,99.777794 144.550491,99.577560 144.143890,99.141624 
	C144.330246,99.088577 144.637527,99.271240 145.033356,99.715965 
z"/>
<path fill="#4579A2" opacity="1.000000" stroke="none" 
	d="
M141.960938,96.734985 
	C141.718765,96.871490 141.453934,96.680298 141.129349,96.190781 
	C141.301300,96.144241 141.590866,96.315849 141.960938,96.734985 
z"/>
<path fill="#4579A2" opacity="1.000000" stroke="none" 
	d="
M140.942520,95.746475 
	C140.707657,95.876617 140.445587,95.686119 140.125854,95.199043 
	C140.292755,95.156471 140.575104,95.330925 140.942520,95.746475 
z"/>
<path fill="#4579A2" opacity="1.000000" stroke="none" 
	d="
M139.936737,94.747238 
	C139.699142,94.874802 139.439728,94.680969 139.127411,94.189102 
	C139.295410,94.148613 139.575546,94.326866 139.936737,94.747238 
z"/>
<path fill="#47779D" opacity="1.000000" stroke="none" 
	d="
M121.029129,116.720802 
	C120.858131,116.768066 120.571854,116.573647 120.156441,116.150116 
	C120.322823,116.107033 120.618332,116.293083 121.029129,116.720802 
z"/>
<path fill="#47779D" opacity="1.000000" stroke="none" 
	d="
M114.969841,111.738312 
	C114.788643,111.790329 114.519814,111.593849 114.128983,111.176186 
	C114.298729,111.133278 114.590462,111.311546 114.969841,111.738312 
z"/>
<path fill="#47779D" opacity="1.000000" stroke="none" 
	d="
M108.966980,107.743454 
	C108.755440,107.910576 108.493233,107.767433 108.122986,107.381012 
	C108.276978,107.306618 108.577431,107.405113 108.966980,107.743454 
z"/>
<path fill="#4D7CA1" opacity="1.000000" stroke="none" 
	d="
M38.063026,8.668261 
	C56.036274,8.161163 73.983780,8.096696 91.931335,8.078628 
	C92.711121,8.077842 93.491325,8.503409 94.644211,8.939102 
	C93.252434,9.418124 91.483681,9.946241 89.723770,9.918262 
	C74.471184,9.675787 59.218964,9.380677 43.969612,8.986001 
	C40.353672,8.892416 38.864552,10.283056 38.933136,13.949788 
	C39.016544,18.408831 38.693188,22.875483 38.296501,27.666382 
	C38.043903,21.702452 38.040600,15.410985 38.063026,8.668261 
z"/>
<path fill="#47779D" opacity="1.000000" stroke="none" 
	d="
M50.528629,23.073654 
	C50.895012,39.643463 50.925312,56.329166 50.900494,73.474442 
	C50.563030,72.502518 50.060509,71.075356 50.032242,69.638855 
	C49.734871,54.527245 49.506649,39.414230 49.310017,24.300945 
	C49.305248,23.934368 49.885273,23.560184 50.528629,23.073654 
z"/>
<path fill="#43779F" opacity="1.000000" stroke="none" 
	d="
M38.323250,84.658112 
	C38.058617,67.642334 38.035461,50.294689 38.032425,32.480743 
	C38.334431,32.599846 38.864399,33.186222 38.862095,33.770508 
	C38.795639,50.622543 38.675880,67.474373 38.323250,84.658112 
z"/>
<path fill="#4A7594" opacity="1.000000" stroke="none" 
	d="
M52.320435,75.356216 
	C67.037270,75.083313 82.087135,75.057098 97.614258,75.088028 
	C97.494736,75.409096 96.896858,75.905701 96.301308,75.902916 
	C81.751877,75.835152 67.202690,75.714272 52.320435,75.356216 
z"/>
<path fill="#487593" opacity="1.000000" stroke="none" 
	d="
M9.112622,25.464443 
	C9.555445,24.999372 9.940004,24.999866 10.611030,25.000643 
	C10.605795,27.629311 10.062161,30.257452 10.059611,32.886116 
	C10.009106,84.949287 10.019049,137.012527 10.023359,189.075745 
	C10.023931,195.971542 10.054261,195.999069 17.017948,195.999496 
	C38.475307,196.000793 59.932682,195.979706 81.390015,196.002304 
	C83.368263,196.004379 85.346260,196.255829 87.665298,196.626129 
	C61.973331,196.907272 35.940434,196.953751 9.436618,197.004929 
	C8.995251,139.983093 9.024806,82.956543 9.112622,25.464443 
z"/>
<path fill="#4076AB" opacity="1.000000" stroke="none" 
	d="
M81.385986,113.539612 
	C72.745644,113.727661 64.331589,113.722618 55.461380,113.605225 
	C55.800728,113.003830 56.597820,112.088242 57.391495,112.091202 
	C66.033989,112.123344 74.675941,112.299324 83.644699,112.681137 
	C83.184998,113.066269 82.398636,113.206398 81.385986,113.539612 
z"/>
<path fill="#49789C" opacity="1.000000" stroke="none" 
	d="
M91.541779,102.124222 
	C92.005051,102.203560 92.000107,102.611153 91.996368,102.815155 
	C78.313873,103.016159 64.635109,103.013161 50.147537,103.009186 
	C48.883533,103.013931 48.428341,103.019653 47.973152,103.025368 
	C47.231407,103.017532 46.489658,103.009697 45.374908,102.786148 
	C45.001904,102.570427 45.000004,102.147888 45.000004,102.147888 
	C60.359501,102.113556 75.719002,102.079224 91.541779,102.124222 
z"/>
<path fill="#4078A3" opacity="1.000000" stroke="none" 
	d="
M44.611290,102.093506 
	C45.000004,102.147888 45.001904,102.570427 45.004044,102.781601 
	C44.203671,103.239960 43.401161,103.487144 42.311539,103.868698 
	C41.496574,103.730125 40.968719,103.457184 40.173248,103.055588 
	C41.344616,102.630997 42.783596,102.335060 44.611290,102.093506 
z"/>
<path fill="#4078A3" opacity="1.000000" stroke="none" 
	d="
M48.034882,103.296249 
	C48.428341,103.019653 48.883533,103.013931 49.680264,103.014023 
	C49.380074,103.202271 48.738342,103.384705 48.034882,103.296249 
z"/>
<path fill="#4B789E" opacity="1.000000" stroke="none" 
	d="
M118.208847,162.891724 
	C118.139893,162.724609 118.329414,162.472961 118.773712,162.133453 
	C118.847084,162.302704 118.660019,162.556549 118.208847,162.891724 
z"/>
</svg>